# xmcd
#
# Track frame offsets:
#	150
#	19967
#	42757
#	72942
#	106070
#	135420
#	169169
#	190310
#	224520
#
# Disc length: 3377 seconds
#
# Revision: 1
# Processed by: cddbd v1.5PL3 Copyright (c) Steve Scherf et al.
# Submitted via: audiograbber 1.82.01
#
DISCID=7c0d2f09
DTITLE=Bob Dylan - 1998-10-23 - Target Center,Minneapolis, Minnesota - Disc 1
DYEAR=1900
DGENRE=
TTITLE0=Bob Dylan - Gotta Serve Somebody (first few seconds are cut)
TTITLE1=Bob Dylan - I'll Remember You
TTITLE2=Bob Dylan - Cold Irons Bound
TTITLE3=Bob Dylan - Just Like A Woman
TTITLE4=Bob Dylan - Silvio (Bob Dylan and Robert Hunter)
TTITLE5=Bob Dylan - It Ain't Me, Babe
TTITLE6=Bob Dylan - Masters Of War
TTITLE7=Bob Dylan - Tangled Up In Blue
TTITLE8=Bob Dylan - My Back Pages
EXTD=
EXTT0=
EXTT1=
EXTT2=
EXTT3=
EXTT4=
EXTT5=
EXTT6=
EXTT7=
EXTT8=
PLAYORDER=
